<svg width="358" height="339" viewBox="0 0 358 339" fill="none" xmlns="http://www.w3.org/2000/svg">
<path d="M263.176 284.107C252.981 296.376 240.825 306.872 227.201 315.17C222.954 317.708 218.564 320 214.053 322.034C182.918 336.027 147.443 336.935 114.264 328.89C44.5116 311.983 7.49248 250.384 2.79812 182.048C1.536 163.579 -1.28788 143.63 6.19404 126.052C13.676 108.473 28.8032 97.5676 45.919 89.9858C58.3496 84.447 71.7698 80.7333 83.9642 77.7005C106.033 72.2506 129.311 74.6519 149.803 84.4924C164.141 91.3024 174.319 103.125 186.414 113.076L190.273 116.227C202.458 126.033 215.266 135.038 228.618 143.186C248.902 155.562 269.668 167.229 282.626 188.004C303.301 221.11 285.858 257.158 263.176 284.107Z" fill="white"/>
<path d="M190.228 116.227C188.938 115.192 187.652 114.139 186.369 113.067C174.319 103.079 164.086 91.2752 149.758 84.4924C129.265 74.6563 105.988 72.2552 83.9189 77.7006C54.9174 84.901 18.9424 95.9877 6.13052 126.061C-1.36048 143.594 1.47249 163.579 2.74369 182.048C7.49253 250.411 44.5117 311.983 114.264 328.89C152.264 338.097 193.124 335.573 227.201 315.17C240.825 306.872 252.981 296.376 263.176 284.107C285.876 257.158 303.301 221.11 282.644 188.004C269.696 167.184 248.939 155.562 228.645 143.186C215.27 135.039 202.438 126.034 190.228 116.227V116.227Z" stroke="#263238" stroke-width="1.21" stroke-miterlimit="10"/>
<path d="M84.5545 238.117C78.7461 239.874 73.1086 242.153 67.7111 244.927" stroke="#263238" stroke-width="1.21" stroke-linecap="round" stroke-linejoin="round"/>
<path d="M120.112 231.316C111.625 232.05 103.202 233.388 94.9056 235.32" stroke="#263238" stroke-width="1.21" stroke-linecap="round" stroke-linejoin="round"/>
<path d="M112.712 229.591C112.712 229.591 79.9782 210.523 40.462 225.814" stroke="#263238" stroke-width="1.21" stroke-linecap="round" stroke-linejoin="round"/>
<path opacity="0.1" d="M263.176 284.107C252.981 296.376 240.825 306.872 227.201 315.17C222.954 317.708 218.564 320 214.053 322.034C210.49 320.943 206.989 319.658 203.566 318.184C183.118 309.422 165.957 294.576 149.195 279.985C139.089 271.213 128.81 262.233 116.698 256.458C100.329 248.714 81.7043 247.178 64.2879 252.136C73.2948 241.972 85.5396 235.235 98.9463 233.068C90.293 225.187 78.2529 221.882 66.5488 221.673C54.8447 221.464 48.3888 222.899 36.9662 225.459C40.7979 218.431 50.9403 212.057 58.9489 212.248C51.3365 212.149 43.7361 211.612 36.1853 210.641C25.8523 208.97 21.2215 196.812 19.696 186.47C15.4284 157.977 19.7505 127.641 35.3045 103.424C38.3805 98.5958 41.94 94.0931 45.9281 89.9858C58.3496 84.447 71.7789 80.7333 83.9733 77.7005C106.04 72.2505 129.315 74.6518 149.803 84.4924C164.15 91.3024 174.319 103.125 186.423 113.076C187.703 114.129 188.984 115.183 190.282 116.227C202.467 126.033 215.276 135.038 228.627 143.185C248.912 155.562 269.668 167.229 282.635 188.004C303.301 221.11 285.858 257.158 263.176 284.107Z" fill="black"/>
<path d="M274.599 283.281C280.74 288.388 287.167 293.141 293.849 297.518C306.869 298.426 301.031 314.144 301.031 314.144L289.881 321.317C289.881 321.317 270.785 306.144 260.316 301.232C249.847 296.32 274.599 283.281 274.599 283.281Z" fill="white"/>
<path opacity="0.3" d="M182.019 117.507C182.019 117.507 180.203 99.8376 177.388 94.8708L134.104 86.036V82.6854C134.104 82.6854 135.103 76.8561 125.46 73.2059C115.817 69.5558 95.7229 74.2955 90.5382 78.2181C85.3535 82.1406 87.2512 88.8962 87.2512 88.8962C87.2512 88.8962 69.8358 97.6947 62.0089 101.045C55.6035 104.008 49.3598 107.309 43.3041 110.933C43.3041 110.933 39.7629 151.557 40.462 160.991C41.1612 170.425 39.89 179.306 40.6981 184.527C41.5062 189.748 42.1509 192.699 47.6261 197.175C53.1014 201.652 58.0863 208.126 72.4509 201.715L70.4442 200.126L165.003 168.274L182.019 117.507Z" fill="black"/>
<path d="M182.019 117.507C182.019 117.507 180.203 99.8376 177.388 94.8708L134.104 86.036V82.6854C134.104 82.6854 135.103 76.8561 125.46 73.2059C115.817 69.5558 95.7229 74.2955 90.5382 78.2181C85.3535 82.1406 87.2512 88.8962 87.2512 88.8962C87.2512 88.8962 69.8358 97.6947 62.0089 101.045C55.6035 104.008 49.3598 107.309 43.3041 110.933C43.3041 110.933 39.7629 151.557 40.462 160.991C41.1612 170.425 39.89 179.306 40.6981 184.527C41.5062 189.748 42.1509 192.699 47.6261 197.175C53.1014 201.652 58.0863 208.126 72.4509 201.715L70.4442 200.126L165.003 168.274L182.019 117.507Z" fill="#00CD7E"/>
<path opacity="0.05" d="M182.019 117.507C182.019 117.507 180.203 99.8376 177.388 94.8708L134.104 86.036V82.6854C134.104 82.6854 135.103 76.8561 125.46 73.2059C115.817 69.5558 95.7229 74.2955 90.5382 78.2181C85.3535 82.1406 87.2512 88.8962 87.2512 88.8962C87.2512 88.8962 69.8358 97.6947 62.0089 101.045C55.6035 104.008 49.3598 107.309 43.3041 110.933C43.3041 110.933 39.7629 151.557 40.462 160.991C41.1612 170.425 39.89 179.306 40.6981 184.527C41.5062 189.748 42.1509 192.699 47.6261 197.175C53.1014 201.652 58.0863 208.126 72.4509 201.715L70.4442 200.126L165.003 168.274L182.019 117.507Z" fill="black"/>
<path opacity="0.1" d="M177.96 97.0137H159.855C158.153 97.0168 156.507 97.6234 155.21 98.7257C153.913 99.828 153.05 101.354 152.772 103.034L143.847 156.724C143.847 156.724 131.571 157.741 122.872 164.079C114.173 170.416 92.7718 125.162 58.9579 125.144C58.9579 125.144 68.6917 147.38 70.8436 165.096C70.8436 165.096 49.7144 162.798 46.2096 171.07C42.7047 179.342 47.7986 194.842 56.7333 188.84C65.668 182.838 74.0942 172.823 80.0598 179.151C86.0254 185.48 112.748 188.894 112.748 188.894L153.798 168.201L169.725 160.719L177.96 97.0137Z" fill="black"/>
<path opacity="0.4" d="M120.484 70.4002C120.484 70.4002 130.763 73.2513 132.424 76.7017C134.086 80.1521 133.913 88.8871 133.913 88.8871C131.421 94.7234 127.644 99.9222 122.863 104.096L115.19 88.8871L115.881 106.139C115.881 106.139 101.353 103.724 95.1509 99.0749L88.9856 94.4168C88.9856 94.4168 86.316 85.6546 86.7065 82.6855C87.0969 79.7163 98.1836 73.6872 98.1836 73.6872L120.484 70.4002Z" fill="white"/>
<path d="M291.678 336.326C291.388 335.709 295.891 327.755 292.368 319.655C288.845 311.556 283.216 314.679 283.216 314.679C283.216 314.679 267.208 304.492 260.516 301.268C255.67 298.833 251.003 296.057 246.551 292.96L239.432 302.54L246.006 322.879L291.678 336.326Z" fill="#00CD7E"/>
<path d="M282.635 314.189L303.192 326.747C303.192 326.747 317.647 317.476 324.539 311.075C331.431 304.673 346.912 291.044 346.912 291.044L356.773 277.778C356.773 277.778 349.936 269.316 338.54 276.117C323.812 284.888 305.852 297.6 293.912 297.491C293.912 297.491 296.273 312.201 282.753 314.189" fill="#00CD7E"/>
<path d="M117.006 17.2913C117.006 17.2913 126.332 31.4016 128.03 35.9689C129.728 40.5361 131.099 47.3007 130.754 50.5513C130.409 53.802 127.004 71.2356 125.306 71.7441L123.653 73.6146L124.752 80.9966C124.752 80.9966 117.488 93.6087 95.9953 84.3653C95.9953 84.3653 95.169 69.6375 92.554 65.0158C89.939 60.3941 86.0527 65.9238 82.1392 52.5308C78.2258 39.1378 90.6835 25.1455 90.6835 25.1455L117.006 17.2913Z" fill="white"/>
<path opacity="0.5" d="M347.82 273.656C347.82 273.656 337.242 275.472 333.819 281.755C330.396 288.039 323.831 299.634 321.552 305.254C319.273 310.875 300.74 324.45 300.74 324.45L303.201 326.747C303.201 326.747 318.319 317.394 327.454 308.514C336.588 299.634 356.7 277.279 356.7 277.279C356.7 277.279 355.257 275.808 347.82 273.656Z" fill="white"/>
<path opacity="0.5" d="M242.02 299.026L239.432 302.539L247.468 319.219L291.706 335.119L293.749 328.635C293.749 328.635 294.43 322.061 278.903 317.067C263.376 312.073 253.915 308.777 249.502 305.345C245.089 301.913 242.02 299.026 242.02 299.026Z" fill="white"/>
<path d="M95.968 175.174C95.968 175.174 82.4207 173.131 76.101 184.209C69.7813 195.287 70.426 200.09 70.426 200.09C70.426 200.09 79.3789 208.216 91.6823 207.753C103.986 207.29 121.937 193.18 127.748 188.64C133.559 184.1 148.314 170.916 158.366 173.631L159.528 164.124C159.528 164.124 158.547 159.856 149.958 161.01C141.368 162.163 137.99 167.057 135.221 167.057C132.451 167.057 129.827 164.396 124.261 173.903C124.207 173.885 104.667 177.354 95.968 175.174Z" fill="white"/>
<path d="M113.601 37.576C113.89 39.3512 114.3 41.1047 114.827 42.8243C115.026 43.6792 115.407 44.4812 115.944 45.176C116.97 46.2747 118.668 46.5561 120.157 46.7831C120.41 46.8005 120.65 46.9028 120.838 47.0737C120.964 47.2673 121.022 47.4974 121.002 47.7275C120.994 49.4523 120.476 51.1363 119.512 52.5671" stroke="#263238" stroke-width="1.21" stroke-linecap="round" stroke-linejoin="round"/>
<path opacity="0.1" d="M251.1 287.657L242.02 298.98C242.02 298.98 252.008 308.196 262.314 311.61C272.619 315.024 290.698 321.471 293.721 326.438L292.559 320.527C292.559 320.527 264.302 303.193 257.819 299.053C255.901 297.795 254.298 296.113 253.133 294.137C251.968 292.162 251.272 289.945 251.1 287.657Z" fill="black"/>
<path opacity="0.1" d="M282.635 314.189L300.722 324.45C300.722 324.45 309.657 318.339 314.042 313.835C318.428 309.331 323.822 304.337 327.19 294.249C331.776 280.303 344.923 273.656 344.923 273.656C344.923 273.656 326.636 282.273 317.12 289.001C307.605 295.729 298.316 298.572 292.922 298.081C292.868 298.145 297.199 311.846 282.635 314.189Z" fill="black"/>
<path d="M107.227 55.0187C107.227 55.0187 114.337 60.5938 121.755 58.5054C121.719 58.5054 114.754 72.307 107.227 55.0187Z" fill="white" stroke="#263238" stroke-width="1.21" stroke-linecap="round" stroke-linejoin="round"/>
<path d="M106.964 42.9696C107.164 44.5041 106.701 45.8298 105.929 45.9387C105.157 46.0477 104.367 44.84 104.158 43.3418C103.949 41.8436 104.403 40.4816 105.184 40.3727C105.965 40.2637 106.791 41.435 106.964 42.9696Z" fill="#263238"/>
<path d="M122.445 40.1729C122.636 41.7165 122.182 43.0422 121.41 43.142C120.638 43.2419 119.83 42.0525 119.594 40.5633C119.358 39.0742 119.839 37.685 120.62 37.5851C121.401 37.4852 122.236 38.6384 122.445 40.1729Z" fill="#263238"/>
<path d="M105.865 36.4592C105.865 36.4592 101.725 34.3254 98.7737 38.9017" stroke="#263238" stroke-width="1.21" stroke-linecap="round" stroke-linejoin="round"/>
<path d="M116.48 33.6081C116.48 33.6081 120.865 29.858 123.399 33.6081" stroke="#263238" stroke-width="1.21" stroke-linecap="round" stroke-linejoin="round"/>
<path d="M91.8004 50.5604C91.8004 50.5604 89.1309 46.6288 86.3524 46.7468C83.5739 46.8648 82.4207 50.8146 83.4286 54.6283C84.4365 58.4419 88.6315 63.7627 91.8095 63.2633C93.5914 63.0253 95.2153 62.1159 96.3495 60.7209" stroke="#263238" stroke-width="1.21" stroke-linecap="round" stroke-linejoin="round"/>
<path d="M117.324 20.4602C120.312 22.9481 123.48 25.654 124.997 29.3132C126.332 32.4276 126.631 35.8871 127.857 39.0379C129.155 42.3975 130.581 45.9205 130.69 49.5888C130.639 53.0003 130.194 56.3945 129.364 59.704C128.908 62.5607 128.231 65.3779 127.339 68.1302C125.859 72.0618 123.135 74.4862 119.476 76.3476C116.807 77.7005 112.376 79.6346 109.488 77.8095C107.817 76.7199 105.293 73.5873 103.205 70.6998" stroke="#263238" stroke-width="1.21" stroke-linecap="round" stroke-linejoin="round"/>
<path d="M91.8003 63.2633C91.8003 63.2633 96.5037 74.8131 95.3687 82.9306" stroke="#263238" stroke-width="1.21" stroke-linecap="round" stroke-linejoin="round"/>
<path d="M90.5927 48.6264C91.2195 48.1616 91.7158 47.543 92.0339 46.8305C92.352 46.118 92.4811 45.3355 92.4087 44.5585C92.2362 42.7425 91.0104 41.1354 91.2465 39.3648C91.4342 38.5153 91.7399 37.6962 92.1545 36.9313C92.7932 35.4574 93.0743 33.8534 92.9749 32.2501C92.8754 30.6468 92.3983 29.0898 91.5824 27.7061C91.5824 27.7061 106.555 28.4052 113.565 23.9469C120.575 19.4887 125.923 8.08418 121.683 2.63618C117.442 -2.81182 109.179 4.6247 103.06 5.4419C96.9396 6.2591 75.1476 9.73674 71.6791 18.1539C68.2105 26.5711 73.4951 29.5675 73.6585 37.576C73.8219 45.5846 73.8219 60.7573 85.7985 59.368C85.7985 59.368 81.322 53.5659 84.4274 47.564C86.5793 45.0579 90.5927 48.6264 90.5927 48.6264Z" fill="#263238"/>
<path d="M119.939 12.1066C121.973 13.6884 123.66 15.672 124.894 17.934C126.128 20.196 126.883 22.6879 127.112 25.2545C127.775 31.2563 138.426 42.9241 130.744 49.5798C130.744 49.5798 128.928 42.5065 127.911 39.0288C126.894 35.5512 125.505 29.1679 123.744 26.9706C121.982 24.7732 112.621 17.1097 112.621 17.1097L119.939 12.1066Z" fill="#263238"/>
<path d="M93.1805 82.6764C93.1805 82.6764 100.563 87.5433 114.282 87.7339L115.89 106.13C115.89 106.13 100.454 104.959 88.9946 94.4077C88.9946 94.4077 85.8892 86.2357 86.7155 82.6764C87.5418 79.117 94.8875 75.6485 94.8875 75.6485" stroke="#263238" stroke-width="1.21" stroke-linecap="round" stroke-linejoin="round"/>
<path d="M124.207 74.4499L124.643 81.0238C121.75 84.0319 118.205 86.3367 114.282 87.7612L122.872 104.105C122.872 104.105 133.114 96.1329 134.131 87.7612C134.131 87.7612 134.222 79.1806 132.433 76.729C130.645 74.2774 124.143 73.097 124.143 73.097" stroke="#263238" stroke-width="1.21" stroke-linecap="round" stroke-linejoin="round"/>
<path opacity="0.8" d="M82.6385 23.611C83.7281 20.887 86.7336 19.2253 89.6574 18.7895C92.5811 18.3537 95.5866 18.6533 98.5467 18.5807C102.642 18.5446 106.653 17.4094 110.16 15.2937C113.676 13.15 116.198 9.69794 117.17 5.69614" stroke="white" stroke-width="1.21" stroke-linecap="round" stroke-linejoin="round"/>
<path opacity="0.8" d="M75.5653 23.0753C77.3813 17.4547 83.4286 13.9953 89.3306 13.4868C92.2543 13.2325 95.2144 13.5685 98.0928 13.2325C100.971 12.8966 104.049 11.6889 105.566 9.18285" stroke="white" stroke-width="1.21" stroke-linecap="round" stroke-linejoin="round"/>
<path d="M72.46 201.679C58.2134 209.061 53.1559 201.452 45.22 195.168C37.2841 188.885 42.496 177.635 40.8343 159.611C39.1727 141.587 43.3041 110.933 43.3041 110.933C43.3041 110.933 46.8544 110.125 56.7062 104.096C66.558 98.067 87.2785 88.8871 87.2785 88.8871" stroke="#263238" stroke-width="1.21" stroke-linecap="round" stroke-linejoin="round"/>
<path d="M86.5702 174.393C86.5702 174.393 84.3093 167.238 77.9351 167.048C71.561 166.857 61.5003 169.772 54.3271 183.292" stroke="#263238" stroke-width="1.21" stroke-linecap="round" stroke-linejoin="round"/>
<path d="M76.4824 166.621C76.0849 166.599 75.6944 166.507 75.3292 166.349C70.0799 164.463 64.3842 164.204 58.9852 165.604" stroke="#263238" stroke-width="1.21" stroke-linecap="round" stroke-linejoin="round"/>
<path d="M55.2897 120.713C66.8939 133.533 72.5417 150.495 77.8989 166.93" stroke="#263238" stroke-width="1.21" stroke-linecap="round" stroke-linejoin="round"/>
<path d="M134.104 86.036C134.104 86.036 155.142 91.0481 165.421 92.2467C175.7 93.4452 177.361 94.8799 177.361 94.8799L179.277 102.044" stroke="#263238" stroke-width="1.21" stroke-linecap="round" stroke-linejoin="round"/>
<path d="M232.159 98.5301L160.518 101.281L154.661 174.965H166.937L229.144 161.037L236.971 100.292L232.159 98.5301Z" fill="white"/>
<path d="M158.393 177.145L236.753 102.035L229.144 161.037L158.393 177.145Z" fill="#00CD7E"/>
<path opacity="0.7" d="M158.393 177.145L236.753 102.035L229.144 161.037L158.393 177.145Z" fill="white"/>
<path d="M158.393 175.174L164.658 104.096L236.971 100.292L229.144 161.037L158.393 175.174Z" stroke="#263238" stroke-width="1.21" stroke-linecap="round" stroke-linejoin="round"/>
<path d="M206.49 134.732C206.009 139.054 203.693 142.341 201.332 142.078C198.972 141.814 197.446 138.083 197.936 133.751C198.427 129.42 200.733 126.142 203.103 126.406C205.473 126.669 206.98 130.401 206.49 134.732Z" fill="#263238"/>
<path d="M229.144 161.037C229.144 161.037 262.259 160.129 272.61 166.93C282.962 173.731 289.045 208.053 287.611 226.258C286.176 244.464 273.682 286.259 273.682 286.259L249.756 259.173C249.756 259.173 237.952 216.316 244.399 199.527C244.399 199.527 212.619 201.343 200.116 197.393C200.116 197.393 188.902 179.042 169.689 172.968L229.144 161.037Z" fill="#263238"/>
<path d="M278.739 286.967C270.234 279.024 262.6 270.197 255.967 260.635C244.39 242.748 228.382 225.577 211.911 212.175C198.645 201.416 195.639 183.891 179.277 175.093C152.155 160.565 128.71 189.448 119.939 195.296C111.168 201.143 95.968 207.808 95.968 207.808C95.968 207.808 101.507 228.628 117.76 231.089C134.013 233.55 150.503 222.327 158.293 227.748C166.084 233.168 171.85 257.385 197.573 271.577C218.602 283.172 247.25 294.476 262.041 302.104C265.328 303.811 267.78 305.609 269.641 306.644C274.844 309.404 280.292 312.682 285.422 315.933L303.155 326.729C303.155 326.729 320.961 316.205 327.799 306.498C328.707 305.191 330.604 301.722 332.384 298.326C336.243 290.999 341.146 284.425 347.929 280.802C352.614 278.269 356.791 277.515 356.691 277.252C356.246 276.416 347.738 272.067 341.963 274.446C329.742 279.494 305.298 298.898 293.758 297.455C288.394 294.502 283.359 290.986 278.739 286.967V286.967Z" stroke="#263238" stroke-width="1.21" stroke-miterlimit="10"/>
<path d="M278.739 286.967C268.079 291.244 263.785 297.927 262.132 302.14C247.35 294.467 218.693 283.208 197.664 271.613C171.94 257.376 166.22 233.205 158.384 227.793C150.548 222.381 134.068 233.64 117.842 231.134C101.616 228.628 95.968 207.799 95.968 207.799C95.968 207.799 111.15 201.225 119.921 195.377C128.692 189.53 148.895 160.619 179.241 175.174C195.993 183.201 198.608 201.506 211.874 212.257C228.309 225.614 244.353 242.829 255.93 260.717C262.56 270.268 270.208 279.069 278.739 286.967Z" fill="#263238"/>
<path d="M198.626 194.088C198.626 194.088 190.454 177.417 177.261 174.185" stroke="white" stroke-width="1.21" stroke-linecap="round" stroke-linejoin="round"/>
<path d="M155.606 160.882C146.526 158.912 136.619 168.918 132.433 167.039C129.319 165.649 124.207 173.885 124.207 173.885C115.791 175.102 107.279 175.534 98.7829 175.174C86.5884 174.393 80.8136 176.772 76.5006 183.292L70.4714 199.255C70.4714 199.255 86.3705 213.501 103.341 205.202C120.312 196.903 142.857 171.887 158.393 171.969" stroke="#263238" stroke-width="1.21" stroke-linecap="round" stroke-linejoin="round"/>
<path d="M281.945 313.762C281.945 313.762 296.799 314.979 293.322 297.228" stroke="#263238" stroke-width="1.21" stroke-miterlimit="10"/>
<path d="M351.96 286.259C350.862 288.447 337.242 300.042 325.51 310.176C325.51 310.021 328.797 303.82 330.159 301.196C333.274 295.366 341.346 279.404 356.691 277.279C358.87 278.586 351.96 286.259 351.96 286.259Z" fill="#263238"/>
<path d="M346.122 273.783C330.595 276.87 327.054 296.792 321.552 305.254C316.049 313.717 300.74 325.23 300.74 325.23" stroke="#263238" stroke-width="1.21" stroke-miterlimit="10"/>
<path d="M292.368 320.155C294.902 324.785 293.703 330.143 292.368 333.511C291.713 335.184 290.898 336.789 289.935 338.306C267.952 334.674 245.979 322.87 245.979 322.87L240.34 305.345L239.432 302.539L247.967 291.044" stroke="#263238" stroke-width="1.21" stroke-miterlimit="10"/>
<path d="M292.368 333.511C291.713 335.184 290.898 336.789 289.935 338.306C267.952 334.674 245.979 322.87 245.979 322.87L240.34 305.345C243.173 309.05 248.439 314.471 256.321 316.695C266.999 319.728 286.757 323.278 292.368 333.511Z" fill="#263238"/>
<path d="M154.661 172.396L160.518 101.281L232.159 98.5301L236.971 100.292" stroke="#263238" stroke-width="1.21" stroke-linecap="round" stroke-linejoin="round"/>
<path d="M293.222 305.254C293.222 305.254 303.019 307.007 310.547 300.878C318.074 294.749 330.232 280.856 330.232 280.856" stroke="#263238" stroke-width="1.21" stroke-miterlimit="10"/>
<path d="M303.192 296.429C303.192 296.429 300.822 299.988 303.192 307.134" stroke="#263238" stroke-width="1.21" stroke-linecap="round" stroke-linejoin="round"/>
<path d="M310.138 293.06C309.062 296.613 309.386 300.444 311.046 303.765" stroke="#263238" stroke-width="1.21" stroke-linecap="round" stroke-linejoin="round"/>
<path d="M318.428 288.22C318.428 288.22 316.449 294.168 318.428 299.416" stroke="#263238" stroke-width="1.21" stroke-linecap="round" stroke-linejoin="round"/>
<path d="M249.874 289.564L242.02 299.026C242.02 299.026 249.929 307.67 261.088 311.265C272.247 314.861 292.196 320.954 293.848 327.455" stroke="#263238" stroke-width="1.21" stroke-miterlimit="10"/>
</svg>
