<svg width="454" height="490" viewBox="0 0 454 490" fill="none" xmlns="http://www.w3.org/2000/svg">
<path d="M301.765 31.9434H70.7695C65.3536 31.9434 60.9631 36.3339 60.9631 41.7498V171.249C60.9631 176.665 65.3536 181.055 70.7695 181.055H301.765C307.181 181.055 311.571 176.665 311.571 171.249V41.7498C311.571 36.3339 307.181 31.9434 301.765 31.9434Z" fill="white"/>
<path d="M311.571 41.768V45.6451H60.9631V41.768C60.9655 39.1629 61.9977 36.6643 63.8347 34.8171C65.6717 32.9699 68.1645 31.9239 70.7695 31.9071H301.81C303.099 31.9119 304.374 32.1709 305.563 32.6694C306.752 33.1678 307.83 33.8959 308.737 34.812C309.644 35.728 310.361 36.8139 310.847 38.0076C311.333 39.2012 311.58 40.4791 311.571 41.768Z" fill="#00CD7E"/>
<path d="M301.765 31.9434H70.7695C65.3536 31.9434 60.9631 36.3339 60.9631 41.7498V171.249C60.9631 176.665 65.3536 181.055 70.7695 181.055H301.765C307.181 181.055 311.571 176.665 311.571 171.249V41.7498C311.571 36.3339 307.181 31.9434 301.765 31.9434Z" stroke="#263238" stroke-width="1.21" stroke-linecap="round" stroke-linejoin="round"/>
<path d="M311.571 41.768V45.6451H60.9631V41.768C60.9655 39.1629 61.9977 36.6643 63.8347 34.8171C65.6717 32.9699 68.1645 31.9239 70.7695 31.9071H301.81C303.099 31.9119 304.374 32.1709 305.563 32.6694C306.752 33.1678 307.83 33.8959 308.737 34.812C309.644 35.728 310.361 36.8139 310.847 38.0076C311.334 39.2012 311.58 40.4791 311.571 41.768V41.768Z" stroke="#263238" stroke-width="1.21" stroke-linecap="round" stroke-linejoin="round"/>
<path d="M89.1111 38.7807C89.1201 39.2778 88.9811 39.7663 88.7116 40.1842C88.4422 40.602 88.0546 40.9303 87.598 41.1272C87.1415 41.3241 86.6367 41.3808 86.1479 41.29C85.6591 41.1992 85.2083 40.9651 84.8529 40.6174C84.4975 40.2697 84.2536 39.8242 84.1521 39.3375C84.0506 38.8507 84.0963 38.3448 84.2831 37.8841C84.47 37.4234 84.7897 37.0286 85.2015 36.7501C85.6134 36.4716 86.0988 36.3219 86.596 36.32C87.2544 36.3175 87.8874 36.5742 88.358 37.0347C88.8287 37.4952 89.0992 38.1223 89.1111 38.7807Z" fill="#263238"/>
<path d="M102.204 38.7807C102.214 39.2778 102.074 39.7663 101.805 40.1842C101.536 40.602 101.148 40.9303 100.691 41.1272C100.235 41.3241 99.7301 41.3808 99.2413 41.29C98.7524 41.1992 98.3017 40.9651 97.9463 40.6174C97.5909 40.2697 97.3469 39.8242 97.2455 39.3375C97.144 38.8507 97.1896 38.3448 97.3765 37.8841C97.5634 37.4234 97.8831 37.0286 98.2949 36.7501C98.7068 36.4716 99.1922 36.3219 99.6893 36.32C100.348 36.3175 100.981 36.5742 101.451 37.0347C101.922 37.4952 102.193 38.1223 102.204 38.7807Z" fill="#263238"/>
<path d="M112.792 41.2867C114.176 41.2867 115.298 40.1647 115.298 38.7807C115.298 37.3966 114.176 36.2746 112.792 36.2746C111.408 36.2746 110.286 37.3966 110.286 38.7807C110.286 40.1647 111.408 41.2867 112.792 41.2867Z" fill="#263238"/>
<path d="M150.728 56.4867H79.8677C77.6362 56.4867 75.8271 58.2957 75.8271 60.5273V94.6136C75.8271 96.8451 77.6362 98.6542 79.8677 98.6542H150.728C152.96 98.6542 154.769 96.8451 154.769 94.6136V60.5273C154.769 58.2957 152.96 56.4867 150.728 56.4867Z" stroke="#263238" stroke-width="1.21" stroke-linecap="round" stroke-linejoin="round"/>
<path d="M80.467 93.3605H148.912" stroke="#263238" stroke-width="1.21" stroke-linecap="round" stroke-linejoin="round"/>
<path d="M93.4968 85.3066H85.5518V93.2516H93.4968V85.3066Z" fill="#00CD7E" stroke="#263238" stroke-width="1.21" stroke-miterlimit="10"/>
<path d="M105.119 74.8646H97.1742V93.3605H105.119V74.8646Z" fill="#00CD7E" stroke="#263238" stroke-width="1.21" stroke-miterlimit="10"/>
<path d="M118.213 78.0426H110.268V93.5421H118.213V78.0426Z" fill="#00CD7E" stroke="#263238" stroke-width="1.21" stroke-miterlimit="10"/>
<path d="M131.978 62.6066H124.033V93.0064H131.978V62.6066Z" fill="#00CD7E" stroke="#263238" stroke-width="1.21" stroke-miterlimit="10"/>
<path d="M145.725 62.8427H137.78V93.2425H145.725V62.8427Z" fill="#00CD7E" stroke="#263238" stroke-width="1.21" stroke-miterlimit="10"/>
<path d="M73.9839 120.201H80.467" stroke="#263238" stroke-width="1.21" stroke-linecap="round" stroke-linejoin="round"/>
<path d="M73.9839 132.731H80.467" stroke="#263238" stroke-width="1.21" stroke-linecap="round" stroke-linejoin="round"/>
<path d="M73.9839 145.28H80.467" stroke="#263238" stroke-width="1.21" stroke-linecap="round" stroke-linejoin="round"/>
<path d="M73.9839 157.819H80.467" stroke="#263238" stroke-width="1.21" stroke-linecap="round" stroke-linejoin="round"/>
<path d="M94.7679 167.281V162.241" stroke="#263238" stroke-width="1.21" stroke-linecap="round" stroke-linejoin="round"/>
<path d="M105.047 167.281V162.241" stroke="#263238" stroke-width="1.21" stroke-linecap="round" stroke-linejoin="round"/>
<path d="M115.325 167.281V162.241" stroke="#263238" stroke-width="1.21" stroke-linecap="round" stroke-linejoin="round"/>
<path d="M125.613 167.281V162.241" stroke="#263238" stroke-width="1.21" stroke-linecap="round" stroke-linejoin="round"/>
<path d="M135.882 167.281V162.241" stroke="#263238" stroke-width="1.21" stroke-linecap="round" stroke-linejoin="round"/>
<path d="M146.161 167.281V162.241" stroke="#263238" stroke-width="1.21" stroke-linecap="round" stroke-linejoin="round"/>
<path d="M156.439 167.281V162.241" stroke="#263238" stroke-width="1.21" stroke-linecap="round" stroke-linejoin="round"/>
<path d="M166.727 167.281V162.241" stroke="#263238" stroke-width="1.21" stroke-linecap="round" stroke-linejoin="round"/>
<path d="M177.006 167.281V162.241" stroke="#263238" stroke-width="1.21" stroke-linecap="round" stroke-linejoin="round"/>
<path d="M187.284 167.281V162.241" stroke="#263238" stroke-width="1.21" stroke-linecap="round" stroke-linejoin="round"/>
<path d="M197.563 167.281V162.241" stroke="#263238" stroke-width="1.21" stroke-linecap="round" stroke-linejoin="round"/>
<path d="M207.85 167.281V162.241" stroke="#263238" stroke-width="1.21" stroke-linecap="round" stroke-linejoin="round"/>
<path d="M218.129 167.281V162.241" stroke="#263238" stroke-width="1.21" stroke-linecap="round" stroke-linejoin="round"/>
<path d="M228.407 167.281V162.241" stroke="#263238" stroke-width="1.21" stroke-linecap="round" stroke-linejoin="round"/>
<path d="M238.677 167.281V162.241" stroke="#263238" stroke-width="1.21" stroke-linecap="round" stroke-linejoin="round"/>
<path d="M248.574 167.281V162.241" stroke="#263238" stroke-width="1.21" stroke-linecap="round" stroke-linejoin="round"/>
<path d="M258.471 167.281V162.241" stroke="#263238" stroke-width="1.21" stroke-linecap="round" stroke-linejoin="round"/>
<path d="M268.35 167.281V162.241" stroke="#263238" stroke-width="1.21" stroke-linecap="round" stroke-linejoin="round"/>
<path d="M294.519 112.528V161.243C294.519 164.584 291.123 167.281 286.937 167.281H81.5838C80.3368 167.326 79.096 167.086 77.9565 166.577C76.817 166.069 75.809 165.306 75.0099 164.348C74.3247 163.47 73.9425 162.393 73.9203 161.279V112.528C73.9203 109.241 77.3162 106.49 81.5021 106.49H286.928C291.123 106.49 294.519 109.187 294.519 112.528Z" stroke="#00CD7E" stroke-width="1.21" stroke-linecap="round" stroke-linejoin="round"/>
<path d="M232.021 18.16L166.464 106.463L141.394 140.232L114.008 122.789L80.4942 167.281H80.0039C78.957 167.284 77.9271 167.016 77.0151 166.502C76.1031 165.987 75.3402 165.245 74.801 164.348L112.465 114.408L139.832 131.751L158.582 106.554L227 14.528L232.021 18.16Z" fill="#263238"/>
<path d="M215.387 19.3041L239.485 4.69435L232.82 29.964L228.571 18.269L215.387 19.3041Z" fill="#263238"/>
<path d="M432.444 297.334H58.0756L14.8821 335.742" stroke="#263238" stroke-width="1.21" stroke-linecap="round" stroke-linejoin="round"/>
<path d="M58.3118 270.448V195.783" stroke="#263238" stroke-width="1.21" stroke-linecap="round" stroke-linejoin="round"/>
<path d="M58.3118 292.993V278.556" stroke="#263238" stroke-width="1.21" stroke-linecap="round" stroke-linejoin="round"/>
<path d="M335.052 149.193C335.05 158.194 331.996 166.928 326.389 173.969C320.782 181.01 312.952 185.941 304.18 187.956H304.062C303.018 188.183 301.983 188.392 300.902 188.546C299.019 188.814 297.12 188.951 295.218 188.955C284.83 188.899 274.876 184.782 267.483 177.485C260.09 170.188 255.843 160.289 255.651 149.903C255.459 139.516 259.337 129.467 266.455 121.901C273.573 114.336 283.368 109.854 293.747 109.414H295.563C300.93 109.454 306.233 110.591 311.144 112.755C318.241 115.846 324.283 120.939 328.529 127.411C332.775 133.883 335.042 141.453 335.052 149.193Z" fill="#FFB000" stroke="#2E353A" stroke-width="1.21" stroke-linecap="round" stroke-linejoin="round"/>
<path opacity="0.4" d="M311.217 112.765C265.272 110.376 265.054 161.379 265.054 161.379C265.054 161.379 258.045 144.735 269.494 126.312C275.85 116.006 287.019 111.457 295.636 109.441C301.002 109.47 306.306 110.602 311.217 112.765Z" fill="white"/>
<path d="M335.052 149.193C335.045 158.209 331.975 166.955 326.346 173.998C320.718 181.04 312.863 185.962 304.071 187.956C301.171 188.628 298.204 188.963 295.227 188.955C284.676 189.15 274.479 185.145 266.88 177.822C259.281 170.499 254.903 160.458 254.708 149.906C254.513 139.355 258.517 129.158 265.84 121.559C273.163 113.96 283.205 109.582 293.756 109.387H295.227C300.457 109.382 305.636 110.408 310.469 112.407C315.302 114.405 319.693 117.337 323.392 121.034C327.091 124.731 330.024 129.121 332.025 133.953C334.026 138.785 335.054 143.964 335.052 149.193V149.193Z" stroke="#263238" stroke-width="1.21" stroke-linecap="round" stroke-linejoin="round"/>
<path d="M335.052 149.193C335.045 158.209 331.975 166.955 326.346 173.998C320.718 181.04 312.863 185.962 304.071 187.956H302.6C292.839 187.923 283.43 184.304 276.163 177.787C268.896 171.27 264.278 162.31 263.186 152.61C262.094 142.91 264.605 133.147 270.241 125.178C275.878 117.209 284.247 111.589 293.756 109.387H295.227C300.457 109.382 305.636 110.408 310.469 112.407C315.302 114.405 319.693 117.337 323.392 121.034C327.091 124.731 330.024 129.121 332.025 133.953C334.026 138.785 335.054 143.964 335.052 149.193V149.193Z" stroke="#263238" stroke-width="1.21" stroke-linecap="round" stroke-linejoin="round"/>
<path d="M308.938 174.055L309.964 178.259L303.081 179.938L302.055 175.743C295.899 175.743 290.95 171.739 289.343 165.32L288.871 163.413L296.462 160.689L296.943 162.677C297.897 166.573 300.475 168.452 303.681 167.662C304.973 167.461 306.132 166.755 306.903 165.699C307.674 164.643 307.995 163.325 307.794 162.033C307.757 161.773 307.696 161.518 307.612 161.27C306.704 157.529 302.4 155.177 297.424 152.762C291.541 149.911 285.475 146.297 283.805 139.487C282.188 132.849 284.222 127.32 289.47 124.578L288.444 120.374L295.309 118.694L296.344 122.889C302.31 122.807 306.759 126.739 308.393 133.53L308.729 134.911L301.147 137.635L300.766 136.109C299.758 131.978 297.633 130.234 294.809 130.925C291.986 131.615 290.805 133.776 291.631 137.126C292.539 140.876 296.898 143.137 301.819 145.652C307.639 148.603 313.778 152.117 315.439 158.909C317.155 165.456 314.477 171.285 308.938 174.055Z" stroke="#263238" stroke-width="1.21" stroke-miterlimit="10"/>
<path d="M308.938 174.055L309.964 178.259L303.081 179.938L302.055 175.743C295.899 175.743 290.95 171.739 289.343 165.32L288.871 163.413L296.462 160.689L296.943 162.677C297.897 166.573 300.475 168.452 303.681 167.662C304.973 167.461 306.132 166.755 306.903 165.699C307.674 164.643 307.995 163.325 307.794 162.033C307.757 161.773 307.696 161.518 307.612 161.27C306.704 157.529 302.4 155.177 297.424 152.762C291.541 149.911 285.475 146.297 283.805 139.487C282.188 132.849 284.222 127.32 289.47 124.578L288.444 120.374L295.309 118.694L296.344 122.889C302.31 122.807 306.759 126.739 308.393 133.53L308.729 134.911L301.147 137.635L300.766 136.109C299.758 131.978 297.633 130.234 294.809 130.925C291.986 131.615 290.805 133.776 291.631 137.126C292.539 140.876 296.898 143.137 301.819 145.652C307.639 148.603 313.778 152.117 315.439 158.909C317.155 165.456 314.477 171.285 308.938 174.055Z" fill="#F3D44A" stroke="#2E353A" stroke-width="1.21" stroke-linecap="round" stroke-linejoin="round"/>
<path d="M274.888 183.398L283.296 183.016" stroke="#263238" stroke-width="1.21" stroke-linecap="round" stroke-linejoin="round"/>
<path d="M270.847 180.601L278.175 179.984" stroke="#263238" stroke-width="1.21" stroke-linecap="round" stroke-linejoin="round"/>
<path d="M267.56 177.659L274.888 177.033" stroke="#263238" stroke-width="1.21" stroke-linecap="round" stroke-linejoin="round"/>
<path d="M266.552 121.599H272.836" stroke="#263238" stroke-width="1.21" stroke-linecap="round" stroke-linejoin="round"/>
<path d="M269.658 118.712L275.914 118.43" stroke="#263238" stroke-width="1.21" stroke-linecap="round" stroke-linejoin="round"/>
<path d="M273.58 115.806L280.172 115.18" stroke="#263238" stroke-width="1.21" stroke-linecap="round" stroke-linejoin="round"/>
<path opacity="0.3" d="M304.18 187.956H304.062C298.671 189.167 293.087 189.241 287.666 188.174C282.245 187.107 277.105 184.922 272.575 181.758C268.046 178.594 264.225 174.522 261.356 169.799C258.488 165.077 256.635 159.809 255.915 154.331C255.196 148.853 255.626 143.285 257.178 137.982C258.729 132.679 261.369 127.758 264.929 123.532C268.488 119.306 272.889 115.868 277.851 113.437C282.812 111.006 288.226 109.636 293.747 109.414H294.846C285.148 112.474 268.877 120.31 264.528 136.581C258.39 159.717 272.227 186.004 304.18 187.956Z" fill="black"/>
<path d="M357.579 86.5687C354.429 91.0183 349.862 94.268 344.626 95.7869C339.39 97.3058 333.793 97.0042 328.75 94.9314L328.614 94.8678C327.861 94.541 327.134 94.1778 326.417 93.7782C325.614 93.3446 324.841 92.8593 324.102 92.3254C319.26 88.6143 316.005 83.2054 314.993 77.1894C313.982 71.1733 315.289 64.9974 318.65 59.9068C322.012 54.8162 327.179 51.1895 333.109 49.7578C339.039 48.3261 345.292 49.1959 350.606 52.1918L351.142 52.5369C351.387 52.6731 351.632 52.8547 351.886 53.0272C352.141 53.1997 352.622 53.5629 352.976 53.8444C357.765 57.6877 360.908 63.2132 361.764 69.2941C362.619 75.375 361.123 81.5532 357.579 86.5687Z" fill="#FFB000" stroke="#2E353A" stroke-width="1.21" stroke-linecap="round" stroke-linejoin="round"/>
<path opacity="0.4" d="M321.269 86.8956C321.269 86.8956 317.337 75.3095 322.567 66.7925C329.141 56.1053 339.211 51.2294 352.912 53.8626C352.912 53.8626 345.485 48.8413 333.045 52.4007C320.606 55.96 313.941 73.0758 321.269 86.8956Z" fill="white"/>
<path d="M357.58 86.5778C354.425 91.0229 349.858 94.2679 344.622 95.7834C339.386 97.2988 333.791 96.9953 328.751 94.9223C327.088 94.2442 325.51 93.3758 324.047 92.3345C319.154 88.5927 315.879 83.119 314.896 77.038C313.913 70.9569 315.296 64.7302 318.76 59.637C322.225 54.5438 327.509 50.9708 333.526 49.652C339.543 48.3332 345.837 49.3688 351.115 52.546C351.36 52.6912 351.614 52.8547 351.85 53.0272C357.052 56.7217 360.577 62.3286 361.651 68.618C362.725 74.9075 361.261 81.3662 357.58 86.5778V86.5778Z" stroke="#263238" stroke-width="1.21" stroke-linecap="round" stroke-linejoin="round"/>
<path d="M357.579 86.5778C354.425 91.0229 349.858 94.2679 344.622 95.7834C339.386 97.2989 333.791 96.9953 328.75 94.9223L328.024 94.4411C323.257 90.9947 319.915 85.9237 318.628 80.1839C317.342 74.444 318.199 68.4317 321.038 63.28C323.877 58.1283 328.503 54.1931 334.043 52.2159C339.583 50.2386 345.655 50.3561 351.114 52.546C351.36 52.6912 351.614 52.8547 351.85 53.0272C357.052 56.7218 360.577 62.3286 361.651 68.618C362.725 74.9075 361.261 81.3662 357.579 86.5778V86.5778Z" stroke="#263238" stroke-width="1.21" stroke-linecap="round" stroke-linejoin="round"/>
<path d="M336.005 89.774L335.052 92.2074L331.066 90.6366L332.019 88.194C330.541 87.1519 329.47 85.6289 328.99 83.8851C328.51 82.1413 328.65 80.2849 329.386 78.6328L329.831 77.5341L334.544 78.8144L334.09 79.9766C333.182 82.2376 333.808 84.0536 335.669 84.789C336.02 84.9634 336.401 85.067 336.792 85.0939C337.183 85.1207 337.575 85.0703 337.946 84.9455C338.317 84.8206 338.66 84.6239 338.954 84.3665C339.249 84.109 339.491 83.796 339.665 83.4452C339.736 83.3016 339.797 83.1529 339.846 83.0003C340.7 80.812 339.392 78.1697 337.785 75.246C335.878 71.7865 334.153 67.8821 335.688 63.9414C337.222 60.0006 340.146 58.0666 343.687 58.5478L344.65 56.1144L348.672 57.6852L347.719 60.1005C350.706 62.1435 351.523 65.5485 349.979 69.58L349.662 70.37L344.949 69.0897L345.303 68.1817C346.211 65.7937 345.803 64.1865 344.205 63.5418C342.607 62.8972 341.235 63.5418 340.473 65.5031C339.61 67.6914 340.981 70.2974 342.525 73.2574C344.341 76.7532 346.157 80.6304 344.631 84.562C344.05 86.316 342.862 87.8049 341.281 88.7604C339.699 89.716 337.828 90.0754 336.005 89.774V89.774Z" stroke="#263238" stroke-width="1.21" stroke-miterlimit="10"/>
<path d="M336.005 89.774L335.052 92.2074L331.066 90.6366L332.019 88.194C330.541 87.1519 329.47 85.6289 328.99 83.8851C328.51 82.1413 328.65 80.2849 329.386 78.6328L329.831 77.5341L334.544 78.8144L334.09 79.9766C333.182 82.2376 333.808 84.0536 335.669 84.789C336.02 84.9634 336.401 85.067 336.792 85.0939C337.183 85.1207 337.575 85.0703 337.946 84.9455C338.317 84.8206 338.66 84.6239 338.954 84.3665C339.249 84.109 339.491 83.796 339.665 83.4452C339.736 83.3016 339.797 83.1529 339.846 83.0003C340.7 80.812 339.392 78.1697 337.785 75.246C335.878 71.7865 334.153 67.8821 335.688 63.9414C337.222 60.0006 340.146 58.0666 343.687 58.5478L344.65 56.1144L348.672 57.6852L347.719 60.1005C350.706 62.1435 351.523 65.5485 349.979 69.58L349.662 70.37L344.949 69.0897L345.303 68.1817C346.211 65.7937 345.803 64.1865 344.205 63.5418C342.607 62.8972 341.235 63.5418 340.473 65.5031C339.61 67.6914 340.981 70.2974 342.525 73.2574C344.341 76.7532 346.157 80.6304 344.631 84.562C344.05 86.316 342.862 87.8049 341.281 88.7604C339.699 89.716 337.828 90.0754 336.005 89.774Z" fill="#F3D44A" stroke="#2E353A" stroke-width="1.21" stroke-linecap="round" stroke-linejoin="round"/>
<path opacity="0.3" d="M350.542 52.2009C343.969 51.0296 335.642 50.3849 331.157 53.2996C322.903 58.5932 317.764 65.267 317.845 76.0813C317.927 86.8956 328.024 94.4774 328.024 94.4774L328.614 94.9042C327.012 94.2294 325.49 93.3798 324.074 92.3708C319.206 88.6711 315.926 83.2589 314.899 77.231C313.872 71.203 315.175 65.0101 318.544 59.907C321.913 54.804 327.096 51.1724 333.042 49.7483C338.989 48.3241 345.255 49.2139 350.57 52.2372L350.542 52.2009Z" fill="black"/>
<path d="M278.211 76.835C278.137 81.6408 276.435 86.2795 273.384 89.9935C270.333 93.7074 266.113 96.2772 261.413 97.2831H261.277C260.569 97.4102 259.851 97.5101 259.134 97.5737C253.657 97.7545 248.323 95.8088 244.249 92.144C240.175 88.4793 237.677 83.38 237.279 77.9146C236.881 72.4493 238.614 67.042 242.114 62.8257C245.614 58.6095 250.611 55.9116 256.056 55.2972H256.61C256.864 55.2972 257.127 55.2972 257.4 55.2972C257.672 55.2972 258.199 55.2972 258.607 55.3517C263.995 55.7669 269.021 58.22 272.664 62.2113C276.306 66.2027 278.29 71.4322 278.211 76.835Z" fill="#FFB000" stroke="#2E353A" stroke-width="1.06" stroke-linecap="round" stroke-linejoin="round"/>
<path opacity="0.4" d="M251.961 95.1584C251.961 95.1584 243.344 88.6934 242.89 79.904C242.345 68.8536 247.248 60.2912 258.526 55.388C258.526 55.388 250.626 55.4425 243.344 64.2228C236.062 73.0032 239.712 88.757 251.961 95.1584Z" fill="white"/>
<path d="M278.22 76.844C278.139 81.6488 276.433 86.2844 273.379 89.9947C270.325 93.705 266.104 96.2709 261.404 97.274C259.856 97.6095 258.275 97.7649 256.692 97.7371C251.277 97.4369 246.182 95.0786 242.449 91.145C238.717 87.2114 236.629 81.9999 236.612 76.5771C236.596 71.1544 238.653 65.9304 242.362 61.9745C246.071 58.0186 251.152 55.6299 256.564 55.2972C256.822 55.2835 257.079 55.2835 257.336 55.2972C262.96 55.3952 268.315 57.7178 272.229 61.7564C276.144 65.795 278.298 71.2203 278.22 76.844Z" stroke="#263238" stroke-width="1.06" stroke-linecap="round" stroke-linejoin="round"/>
<path d="M278.22 76.844C278.139 81.6488 276.433 86.2845 273.379 89.9947C270.325 93.705 266.104 96.2709 261.404 97.274H260.632C255.448 97.1371 250.493 95.1097 246.699 91.5736C242.906 88.0374 240.536 83.2364 240.036 78.0746C239.536 72.9127 240.94 67.7462 243.985 63.5477C247.029 59.3492 251.503 56.4084 256.564 55.279C256.822 55.2654 257.079 55.2654 257.336 55.279C262.963 55.377 268.321 57.7021 272.236 61.7447C276.151 65.7872 278.303 71.2172 278.22 76.844V76.844Z" stroke="#263238" stroke-width="1.06" stroke-linecap="round" stroke-linejoin="round"/>
<path d="M264.119 89.892L264.637 92.1348L260.95 92.9792L260.433 90.7273C258.837 90.7052 257.299 90.13 256.08 89.1001C254.861 88.0701 254.038 86.6491 253.75 85.0796L253.523 84.0626L257.591 82.6461L257.845 83.7176C258.326 85.7969 259.661 86.8229 261.386 86.4416C262.064 86.3444 262.678 85.9865 263.097 85.444C263.516 84.9014 263.707 84.2169 263.629 83.536C263.608 83.3978 263.578 83.2613 263.538 83.1274C263.066 81.1026 260.814 79.8314 258.172 78.5057C255.057 76.9348 251.861 74.9645 251.017 71.3234C250.172 67.6823 251.334 64.8312 254.149 63.4147L253.641 61.1629L257.318 60.3275L257.827 62.5612C261.014 62.5612 263.32 64.6496 264.183 68.327L264.346 69.0625L260.278 70.479L260.088 69.6527C259.588 67.4462 258.462 66.4928 256.982 66.8197C255.502 67.1466 254.821 68.2998 255.239 70.1067C255.711 72.1315 257.963 73.3482 260.605 74.7284C263.692 76.3537 266.961 78.2787 267.76 81.9107C268.184 83.4568 268.051 85.1026 267.386 86.5611C266.72 88.0196 265.564 89.1984 264.119 89.892V89.892Z" stroke="#263238" stroke-width="1.06" stroke-miterlimit="10"/>
<path d="M264.119 89.892L264.637 92.1348L260.95 92.9792L260.433 90.7273C258.837 90.7052 257.299 90.13 256.08 89.1001C254.861 88.0701 254.038 86.6491 253.75 85.0796L253.523 84.0626L257.591 82.6461L257.845 83.7176C258.326 85.7969 259.661 86.8229 261.386 86.4416C262.064 86.3444 262.678 85.9865 263.097 85.444C263.516 84.9014 263.707 84.2169 263.629 83.536C263.608 83.3978 263.578 83.2613 263.538 83.1274C263.066 81.1026 260.814 79.8314 258.172 78.5057C255.057 76.9348 251.861 74.9645 251.017 71.3234C250.172 67.6823 251.334 64.8312 254.149 63.4147L253.641 61.1629L257.318 60.3275L257.827 62.5612C261.014 62.5612 263.32 64.6496 264.183 68.327L264.346 69.0625L260.278 70.479L260.088 69.6527C259.588 67.4462 258.462 66.4928 256.982 66.8197C255.502 67.1466 254.821 68.2998 255.239 70.1067C255.711 72.1315 257.963 73.3482 260.605 74.7284C263.692 76.3537 266.961 78.2787 267.76 81.9107C268.184 83.4568 268.051 85.1026 267.386 86.5611C266.72 88.0196 265.564 89.1984 264.119 89.892Z" fill="#F3D44A" stroke="#2E353A" stroke-width="1.06" stroke-linecap="round" stroke-linejoin="round"/>
<path opacity="0.3" d="M255.983 55.3335C250.608 57.7579 244.252 61.4353 242.436 65.7937C239.067 73.7568 238.65 81.1661 244.098 89.0022C249.546 96.8382 260.669 97.3104 260.669 97.3104H261.313C259.821 97.624 258.298 97.7702 256.773 97.7462C251.399 97.4614 246.333 95.149 242.598 91.2754C238.862 87.4018 236.735 82.2554 236.645 76.8747C236.555 71.494 238.509 66.2794 242.114 62.2832C245.718 58.287 250.704 55.8067 256.065 55.3426L255.983 55.3335Z" fill="black"/>
<path d="M355.176 435.107C344.981 447.376 332.825 457.872 319.201 466.17C314.954 468.708 310.564 471 306.053 473.034C274.918 487.027 239.443 487.935 206.264 479.89C136.512 462.983 99.4925 401.384 94.7981 333.048C93.536 314.579 90.7121 294.63 98.194 277.052C105.676 259.473 120.803 248.568 137.919 240.986C150.35 235.447 163.77 231.733 175.964 228.701C198.033 223.251 221.311 225.652 241.803 235.492C256.141 242.302 266.319 254.125 278.414 264.076L282.273 267.227C294.458 277.033 307.266 286.038 320.618 294.186C340.902 306.562 361.668 318.229 374.626 339.004C395.301 372.11 377.858 408.158 355.176 435.107Z" fill="white"/>
<path d="M282.228 267.227C280.938 266.192 279.652 265.139 278.369 264.067C266.319 254.079 256.086 242.275 241.758 235.492C221.265 225.656 197.988 223.255 175.919 228.701C146.917 235.901 110.942 246.988 98.1305 277.061C90.6395 294.594 93.4725 314.579 94.7437 333.048C99.4925 401.411 136.512 462.983 206.264 479.89C244.264 489.097 285.124 486.573 319.201 466.17C332.825 457.872 344.981 447.376 355.176 435.107C377.876 408.158 395.301 372.11 374.644 339.004C361.696 318.184 340.939 306.562 320.645 294.186C307.27 286.039 294.438 277.034 282.228 267.227V267.227Z" stroke="#263238" stroke-width="1.21" stroke-miterlimit="10"/>
<path d="M176.554 389.117C170.746 390.874 165.109 393.153 159.711 395.927" stroke="#263238" stroke-width="1.21" stroke-linecap="round" stroke-linejoin="round"/>
<path d="M212.112 382.316C203.625 383.05 195.202 384.388 186.906 386.32" stroke="#263238" stroke-width="1.21" stroke-linecap="round" stroke-linejoin="round"/>
<path d="M204.712 380.591C204.712 380.591 171.978 361.523 132.462 376.814" stroke="#263238" stroke-width="1.21" stroke-linecap="round" stroke-linejoin="round"/>
<path opacity="0.1" d="M355.176 435.107C344.981 447.376 332.825 457.872 319.201 466.17C314.954 468.708 310.564 471 306.053 473.034C302.49 471.943 298.989 470.658 295.566 469.184C275.118 460.422 257.957 445.576 241.195 430.985C231.089 422.213 220.81 413.233 208.698 407.458C192.329 399.714 173.704 398.178 156.288 403.136C165.295 392.972 177.54 386.235 190.946 384.068C182.293 376.187 170.253 372.882 158.549 372.673C146.845 372.464 140.389 373.899 128.966 376.459C132.798 369.431 142.94 363.057 150.949 363.248C143.336 363.149 135.736 362.612 128.185 361.641C117.852 359.97 113.221 347.812 111.696 337.47C107.428 308.977 111.751 278.641 127.305 254.424C130.38 249.596 133.94 245.093 137.928 240.986C150.35 235.447 163.779 231.733 175.973 228.701C198.04 223.25 221.315 225.652 241.803 235.492C256.15 242.302 266.319 254.125 278.423 264.076C279.703 265.129 280.984 266.183 282.282 267.227C294.467 277.033 307.276 286.038 320.627 294.185C340.912 306.562 361.668 318.229 374.635 339.004C395.301 372.11 377.858 408.158 355.176 435.107Z" fill="black"/>
<path d="M366.599 434.281C372.74 439.388 379.167 444.141 385.849 448.518C398.869 449.426 393.031 465.144 393.031 465.144L381.881 472.317C381.881 472.317 362.785 457.144 352.316 452.232C341.847 447.32 366.599 434.281 366.599 434.281Z" fill="white"/>
<path opacity="0.3" d="M274.019 268.507C274.019 268.507 272.203 250.838 269.388 245.871L226.104 237.036V233.685C226.104 233.685 227.103 227.856 217.46 224.206C207.817 220.556 187.723 225.296 182.538 229.218C177.354 233.141 179.251 239.896 179.251 239.896C179.251 239.896 161.836 248.695 154.009 252.045C147.603 255.008 141.36 258.309 135.304 261.933C135.304 261.933 131.763 302.557 132.462 311.991C133.161 321.425 131.89 330.306 132.698 335.527C133.506 340.748 134.151 343.699 139.626 348.175C145.101 352.652 150.086 359.126 164.451 352.715L162.444 351.126L257.003 319.274L274.019 268.507Z" fill="black"/>
<path d="M274.019 268.507C274.019 268.507 272.203 250.838 269.388 245.871L226.104 237.036V233.685C226.104 233.685 227.103 227.856 217.46 224.206C207.817 220.556 187.723 225.296 182.538 229.218C177.354 233.141 179.251 239.896 179.251 239.896C179.251 239.896 161.836 248.695 154.009 252.045C147.603 255.008 141.36 258.309 135.304 261.933C135.304 261.933 131.763 302.557 132.462 311.991C133.161 321.425 131.89 330.306 132.698 335.527C133.506 340.748 134.151 343.699 139.626 348.175C145.101 352.652 150.086 359.126 164.451 352.715L162.444 351.126L257.003 319.274L274.019 268.507Z" fill="#00CD7E"/>
<path opacity="0.05" d="M274.019 268.507C274.019 268.507 272.203 250.838 269.388 245.871L226.104 237.036V233.685C226.104 233.685 227.103 227.856 217.46 224.206C207.817 220.556 187.723 225.296 182.538 229.218C177.354 233.141 179.251 239.896 179.251 239.896C179.251 239.896 161.836 248.695 154.009 252.045C147.603 255.008 141.36 258.309 135.304 261.933C135.304 261.933 131.763 302.557 132.462 311.991C133.161 321.425 131.89 330.306 132.698 335.527C133.506 340.748 134.151 343.699 139.626 348.175C145.101 352.652 150.086 359.126 164.451 352.715L162.444 351.126L257.003 319.274L274.019 268.507Z" fill="black"/>
<path opacity="0.1" d="M269.96 248.014H251.855C250.153 248.017 248.507 248.623 247.21 249.726C245.913 250.828 245.05 252.354 244.772 254.034L235.847 307.724C235.847 307.724 223.571 308.741 214.872 315.079C206.173 321.416 184.772 276.162 150.958 276.144C150.958 276.144 160.692 298.38 162.844 316.096C162.844 316.096 141.714 313.798 138.21 322.07C134.705 330.342 139.799 345.842 148.733 339.84C157.668 333.838 166.094 323.823 172.06 330.151C178.025 336.48 204.748 339.894 204.748 339.894L245.798 319.201L261.725 311.719L269.96 248.014Z" fill="black"/>
<path opacity="0.4" d="M212.484 221.4C212.484 221.4 222.763 224.251 224.424 227.702C226.086 231.152 225.913 239.887 225.913 239.887C223.421 245.723 219.644 250.922 214.863 255.096L207.19 239.887L207.881 257.139C207.881 257.139 193.353 254.724 187.151 250.075L180.986 245.417C180.986 245.417 178.316 236.655 178.706 233.685C179.097 230.716 190.184 224.687 190.184 224.687L212.484 221.4Z" fill="white"/>
<path d="M383.678 487.326C383.388 486.709 387.891 478.755 384.368 470.655C380.845 462.556 375.216 465.679 375.216 465.679C375.216 465.679 359.208 455.492 352.516 452.268C347.67 449.833 343.003 447.057 338.551 443.96L331.432 453.54L338.006 473.879L383.678 487.326Z" fill="#00CD7E"/>
<path d="M374.635 465.189L395.192 477.747C395.192 477.747 409.647 468.476 416.539 462.075C423.431 455.673 438.912 442.044 438.912 442.044L448.773 428.778C448.773 428.778 441.936 420.316 430.54 427.117C415.812 435.888 397.852 448.6 385.912 448.491C385.912 448.491 388.273 463.201 374.753 465.189" fill="#00CD7E"/>
<path d="M209.006 168.291C209.006 168.291 218.332 182.402 220.03 186.969C221.728 191.536 223.099 198.301 222.754 201.551C222.409 204.802 219.004 222.236 217.306 222.744L215.653 224.615L216.752 231.997C216.752 231.997 209.488 244.609 187.995 235.365C187.995 235.365 187.169 220.638 184.554 216.016C181.939 211.394 178.053 216.924 174.139 203.531C170.226 190.138 182.684 176.145 182.684 176.145L209.006 168.291Z" fill="white"/>
<path opacity="0.5" d="M439.82 424.656C439.82 424.656 429.242 426.472 425.819 432.755C422.396 439.039 415.831 450.634 413.552 456.254C411.273 461.875 392.74 475.45 392.74 475.45L395.201 477.747C395.201 477.747 410.319 468.394 419.454 459.514C428.588 450.634 448.7 428.279 448.7 428.279C448.7 428.279 447.257 426.808 439.82 424.656Z" fill="white"/>
<path opacity="0.5" d="M334.02 450.026L331.432 453.539L339.468 470.219L383.706 486.119L385.749 479.635C385.749 479.635 386.43 473.061 370.903 468.067C355.376 463.073 345.915 459.777 341.502 456.345C337.089 452.913 334.02 450.026 334.02 450.026Z" fill="white"/>
<path d="M187.968 326.174C187.968 326.174 174.421 324.131 168.101 335.209C161.781 346.287 162.426 351.09 162.426 351.09C162.426 351.09 171.379 359.216 183.682 358.753C195.986 358.29 213.937 344.18 219.748 339.64C225.559 335.1 240.314 321.916 250.366 324.631L251.528 315.124C251.528 315.124 250.547 310.856 241.958 312.01C233.368 313.163 229.99 318.057 227.221 318.057C224.451 318.057 221.827 315.396 216.261 324.903C216.207 324.885 196.667 328.354 187.968 326.174Z" fill="white"/>
<path d="M205.601 188.576C205.89 190.351 206.3 192.105 206.827 193.824C207.026 194.679 207.407 195.481 207.944 196.176C208.97 197.275 210.668 197.556 212.157 197.783C212.41 197.8 212.65 197.903 212.838 198.074C212.964 198.267 213.022 198.497 213.002 198.727C212.994 200.452 212.476 202.136 211.512 203.567" stroke="#263238" stroke-width="1.21" stroke-linecap="round" stroke-linejoin="round"/>
<path opacity="0.1" d="M343.1 438.657L334.02 449.98C334.02 449.98 344.008 459.196 354.314 462.61C364.619 466.024 382.698 472.471 385.721 477.438L384.559 471.527C384.559 471.527 356.302 454.193 349.819 450.053C347.901 448.795 346.298 447.113 345.133 445.137C343.968 443.162 343.272 440.945 343.1 438.657Z" fill="black"/>
<path opacity="0.1" d="M374.635 465.189L392.722 475.45C392.722 475.45 401.657 469.339 406.042 464.835C410.428 460.331 415.822 455.337 419.19 445.249C423.776 431.303 436.923 424.656 436.923 424.656C436.923 424.656 418.636 433.273 409.12 440.001C399.605 446.729 390.316 449.572 384.922 449.081C384.868 449.145 389.199 462.846 374.635 465.189Z" fill="black"/>
<path d="M199.227 206.019C199.227 206.019 206.337 211.594 213.755 209.505C213.719 209.505 206.754 223.307 199.227 206.019Z" fill="white" stroke="#263238" stroke-width="1.21" stroke-linecap="round" stroke-linejoin="round"/>
<path d="M198.964 193.97C199.164 195.504 198.701 196.83 197.929 196.939C197.157 197.048 196.367 195.84 196.158 194.342C195.949 192.844 196.403 191.482 197.184 191.373C197.965 191.264 198.791 192.435 198.964 193.97Z" fill="#263238"/>
<path d="M214.445 191.173C214.636 192.717 214.182 194.042 213.41 194.142C212.638 194.242 211.83 193.052 211.594 191.563C211.358 190.074 211.839 188.685 212.62 188.585C213.401 188.485 214.236 189.638 214.445 191.173Z" fill="#263238"/>
<path d="M197.865 187.459C197.865 187.459 193.725 185.325 190.774 189.902" stroke="#263238" stroke-width="1.21" stroke-linecap="round" stroke-linejoin="round"/>
<path d="M208.48 184.608C208.48 184.608 212.865 180.858 215.399 184.608" stroke="#263238" stroke-width="1.21" stroke-linecap="round" stroke-linejoin="round"/>
<path d="M183.8 201.56C183.8 201.56 181.131 197.629 178.352 197.747C175.574 197.865 174.421 201.815 175.429 205.628C176.437 209.442 180.631 214.763 183.809 214.263C185.591 214.025 187.215 213.116 188.349 211.721" stroke="#263238" stroke-width="1.21" stroke-linecap="round" stroke-linejoin="round"/>
<path d="M209.324 171.46C212.312 173.948 215.48 176.654 216.997 180.313C218.332 183.428 218.631 186.887 219.857 190.038C221.155 193.397 222.581 196.921 222.69 200.589C222.639 204 222.194 207.395 221.364 210.704C220.908 213.561 220.231 216.378 219.339 219.13C217.859 223.062 215.135 225.486 211.476 227.348C208.807 228.701 204.376 230.635 201.488 228.809C199.817 227.72 197.293 224.587 195.205 221.7" stroke="#263238" stroke-width="1.21" stroke-linecap="round" stroke-linejoin="round"/>
<path d="M183.8 214.263C183.8 214.263 188.504 225.813 187.369 233.931" stroke="#263238" stroke-width="1.21" stroke-linecap="round" stroke-linejoin="round"/>
<path d="M182.593 199.626C183.219 199.162 183.716 198.543 184.034 197.831C184.352 197.118 184.481 196.335 184.409 195.559C184.236 193.743 183.01 192.135 183.246 190.365C183.434 189.515 183.74 188.696 184.154 187.931C184.793 186.457 185.074 184.853 184.975 183.25C184.875 181.647 184.398 180.09 183.582 178.706C183.582 178.706 198.555 179.405 205.565 174.947C212.575 170.489 217.923 159.084 213.683 153.636C209.442 148.188 201.179 155.625 195.06 156.442C188.94 157.259 167.148 160.737 163.679 169.154C160.211 177.571 165.495 180.567 165.658 188.576C165.822 196.585 165.822 211.757 177.798 210.368C177.798 210.368 173.322 204.566 176.427 198.564C178.579 196.058 182.593 199.626 182.593 199.626Z" fill="#263238"/>
<path d="M211.939 163.107C213.973 164.688 215.66 166.672 216.894 168.934C218.128 171.196 218.883 173.688 219.112 176.254C219.775 182.256 230.426 193.924 222.744 200.58C222.744 200.58 220.928 193.506 219.911 190.029C218.894 186.551 217.505 180.168 215.744 177.971C213.982 175.773 204.621 168.11 204.621 168.11L211.939 163.107Z" fill="#263238"/>
<path d="M185.18 233.676C185.18 233.676 192.563 238.543 206.282 238.734L207.89 257.13C207.89 257.13 192.454 255.959 180.995 245.408C180.995 245.408 177.889 237.236 178.716 233.676C179.542 230.117 186.888 226.648 186.888 226.648" stroke="#263238" stroke-width="1.21" stroke-linecap="round" stroke-linejoin="round"/>
<path d="M216.207 225.45L216.643 232.024C213.75 235.032 210.205 237.337 206.282 238.761L214.872 255.105C214.872 255.105 225.114 247.133 226.131 238.761C226.131 238.761 226.222 230.181 224.433 227.729C222.645 225.277 216.143 224.097 216.143 224.097" stroke="#263238" stroke-width="1.21" stroke-linecap="round" stroke-linejoin="round"/>
<path opacity="0.8" d="M174.639 174.611C175.728 171.887 178.734 170.225 181.657 169.789C184.581 169.354 187.587 169.653 190.547 169.581C194.642 169.545 198.653 168.409 202.16 166.294C205.676 164.15 208.198 160.698 209.17 156.696" stroke="white" stroke-width="1.21" stroke-linecap="round" stroke-linejoin="round"/>
<path opacity="0.8" d="M167.565 174.075C169.381 168.455 175.429 164.995 181.331 164.487C184.254 164.233 187.214 164.569 190.093 164.233C192.971 163.897 196.049 162.689 197.566 160.183" stroke="white" stroke-width="1.21" stroke-linecap="round" stroke-linejoin="round"/>
<path d="M164.46 352.679C150.213 360.061 145.156 352.452 137.22 346.168C129.284 339.885 134.496 328.635 132.834 310.611C131.173 292.587 135.304 261.933 135.304 261.933C135.304 261.933 138.854 261.125 148.706 255.096C158.558 249.067 179.279 239.887 179.279 239.887" stroke="#263238" stroke-width="1.21" stroke-linecap="round" stroke-linejoin="round"/>
<path d="M178.57 325.393C178.57 325.393 176.309 318.238 169.935 318.048C163.561 317.857 153.5 320.772 146.327 334.292" stroke="#263238" stroke-width="1.21" stroke-linecap="round" stroke-linejoin="round"/>
<path d="M168.482 317.621C168.085 317.599 167.694 317.507 167.329 317.349C162.08 315.463 156.384 315.204 150.985 316.604" stroke="#263238" stroke-width="1.21" stroke-linecap="round" stroke-linejoin="round"/>
<path d="M147.29 271.713C158.894 284.533 164.542 301.495 169.899 317.93" stroke="#263238" stroke-width="1.21" stroke-linecap="round" stroke-linejoin="round"/>
<path d="M226.104 237.036C226.104 237.036 247.142 242.048 257.421 243.247C267.7 244.445 269.361 245.88 269.361 245.88L271.277 253.044" stroke="#263238" stroke-width="1.21" stroke-linecap="round" stroke-linejoin="round"/>
<path d="M324.159 249.53L252.518 252.281L246.661 325.965H258.937L321.144 312.037L328.971 251.292L324.159 249.53Z" fill="white"/>
<path d="M250.393 328.145L328.753 253.035L321.144 312.037L250.393 328.145Z" fill="#00CD7E"/>
<path opacity="0.7" d="M250.393 328.145L328.753 253.035L321.144 312.037L250.393 328.145Z" fill="white"/>
<path d="M250.393 326.174L256.658 255.096L328.971 251.292L321.144 312.037L250.393 326.174Z" stroke="#263238" stroke-width="1.21" stroke-linecap="round" stroke-linejoin="round"/>
<path d="M298.49 285.732C298.009 290.054 295.693 293.341 293.332 293.078C290.972 292.814 289.446 289.083 289.936 284.751C290.427 280.42 292.733 277.142 295.103 277.406C297.473 277.669 298.98 281.401 298.49 285.732Z" fill="#263238"/>
<path d="M321.144 312.037C321.144 312.037 354.259 311.129 364.61 317.93C374.962 324.731 381.045 359.053 379.611 377.258C378.176 395.464 365.682 437.259 365.682 437.259L341.756 410.173C341.756 410.173 329.952 367.316 336.399 350.527C336.399 350.527 304.619 352.343 292.116 348.393C292.116 348.393 280.902 330.042 261.689 323.968L321.144 312.037Z" fill="#263238"/>
<path d="M370.739 437.967C362.234 430.024 354.6 421.197 347.967 411.635C336.39 393.748 320.382 376.577 303.911 363.175C290.645 352.416 287.639 334.891 271.277 326.093C244.155 311.565 220.71 340.448 211.939 346.296C203.168 352.143 187.968 358.808 187.968 358.808C187.968 358.808 193.507 379.628 209.76 382.089C226.013 384.55 242.503 373.327 250.293 378.748C258.084 384.168 263.85 408.385 289.573 422.577C310.602 434.172 339.25 445.476 354.041 453.104C357.328 454.811 359.78 456.609 361.641 457.644C366.844 460.404 372.292 463.682 377.422 466.933L395.155 477.729C395.155 477.729 412.961 467.205 419.799 457.498C420.707 456.191 422.604 452.722 424.384 449.326C428.243 441.999 433.146 435.425 439.929 431.802C444.614 429.269 448.791 428.515 448.691 428.252C448.246 427.416 439.738 423.067 433.963 425.446C421.742 430.494 397.298 449.898 385.758 448.455C380.394 445.502 375.359 441.986 370.739 437.967V437.967Z" stroke="#263238" stroke-width="1.21" stroke-miterlimit="10"/>
<path d="M370.739 437.967C360.079 442.244 355.785 448.927 354.132 453.14C339.35 445.467 310.693 434.208 289.664 422.613C263.94 408.376 258.22 384.205 250.384 378.793C242.548 373.381 226.068 384.64 209.842 382.134C193.616 379.628 187.968 358.799 187.968 358.799C187.968 358.799 203.15 352.225 211.921 346.377C220.692 340.53 240.895 311.619 271.241 326.174C287.993 334.201 290.608 352.506 303.874 363.257C320.309 376.614 336.353 393.829 347.93 411.717C354.56 421.268 362.208 430.069 370.739 437.967Z" fill="#263238"/>
<path d="M290.626 345.088C290.626 345.088 282.454 328.417 269.261 325.185" stroke="white" stroke-width="1.21" stroke-linecap="round" stroke-linejoin="round"/>
<path d="M247.606 311.882C238.526 309.912 228.619 319.918 224.433 318.039C221.319 316.649 216.207 324.885 216.207 324.885C207.791 326.102 199.279 326.534 190.783 326.174C178.588 325.393 172.814 327.772 168.501 334.292L162.471 350.255C162.471 350.255 178.371 364.501 195.341 356.202C212.312 347.903 234.857 322.887 250.393 322.969" stroke="#263238" stroke-width="1.21" stroke-linecap="round" stroke-linejoin="round"/>
<path d="M373.945 464.762C373.945 464.762 388.799 465.979 385.322 448.228" stroke="#263238" stroke-width="1.21" stroke-miterlimit="10"/>
<path d="M443.96 437.259C442.862 439.447 429.242 451.042 417.51 461.176C417.51 461.021 420.797 454.82 422.159 452.196C425.274 446.366 433.346 430.404 448.691 428.279C450.87 429.586 443.96 437.259 443.96 437.259Z" fill="#263238"/>
<path d="M438.122 424.783C422.595 427.87 419.054 447.792 413.552 456.254C408.049 464.717 392.74 476.23 392.74 476.23" stroke="#263238" stroke-width="1.21" stroke-miterlimit="10"/>
<path d="M384.368 471.155C386.902 475.785 385.703 481.143 384.368 484.511C383.713 486.184 382.898 487.789 381.935 489.306C359.952 485.674 337.979 473.87 337.979 473.87L332.34 456.345L331.432 453.539L339.967 442.044" stroke="#263238" stroke-width="1.21" stroke-miterlimit="10"/>
<path d="M384.368 484.511C383.713 486.184 382.898 487.789 381.935 489.306C359.952 485.674 337.979 473.87 337.979 473.87L332.34 456.345C335.173 460.05 340.439 465.471 348.321 467.695C358.999 470.728 378.757 474.278 384.368 484.511Z" fill="#263238"/>
<path d="M246.661 323.396L252.518 252.281L324.159 249.53L328.971 251.292" stroke="#263238" stroke-width="1.21" stroke-linecap="round" stroke-linejoin="round"/>
<path d="M385.222 456.254C385.222 456.254 395.019 458.007 402.547 451.878C410.074 445.749 422.232 431.856 422.232 431.856" stroke="#263238" stroke-width="1.21" stroke-miterlimit="10"/>
<path d="M395.192 447.429C395.192 447.429 392.822 450.988 395.192 458.134" stroke="#263238" stroke-width="1.21" stroke-linecap="round" stroke-linejoin="round"/>
<path d="M402.138 444.06C401.062 447.613 401.386 451.444 403.046 454.765" stroke="#263238" stroke-width="1.21" stroke-linecap="round" stroke-linejoin="round"/>
<path d="M410.428 439.22C410.428 439.22 408.449 445.168 410.428 450.416" stroke="#263238" stroke-width="1.21" stroke-linecap="round" stroke-linejoin="round"/>
<path d="M341.874 440.564L334.02 450.026C334.02 450.026 341.929 458.67 353.088 462.265C364.247 465.861 384.196 471.954 385.848 478.455" stroke="#263238" stroke-width="1.21" stroke-miterlimit="10"/>
</svg>
